# xmcd
#
# Track frame offsets: 
#        150
#        14387
#        27573
#        46945
#        83237
#        91087
#        105590
#        122218
#        137188
#        154512
#        178680
#        204453
#        221938
#        235184
#
# Disc length: 3317 seconds
#
# Revision: 3
# Processed by: cddbd v1.5.2PL0 Copyright (c) Steve Scherf et al.
# Submitted via: ExactAudioCopy v1.3
#
DISCID=bc0cf30e
DTITLE=John And Beverley Martyn - Stormbringer !
DYEAR=1970
DGENRE=Folk
TTITLE0=Go Out and Get It
TTITLE1=Can't Get The One I Want
TTITLE2=Stormbringer
TTITLE3=Sweet Honesty
TTITLE4=Woodstock
TTITLE5=John The Baptist
TTITLE6=Ocean
TTITLE7=Traffic-Light Lady
TTITLE8=Tomorrow Time
TTITLE9=Would You Believe Me
TTITLE10=One Of Those Days (demo)
TTITLE11=I Don't Know (demo)
TTITLE12=John The Baptist (demo)
TTITLE13=Traffic-Light Lady (demo)
EXTD=Original Year: 1970\nRemastered 2005
EXTT0=
EXTT1=
EXTT2=
EXTT3=
EXTT4=
EXTT5=
EXTT6=
EXTT7=
EXTT8=
EXTT9=
EXTT10=
EXTT11=
EXTT12=
EXTT13=
PLAYORDER=
